# xmcd
#
# Track frame offsets:
#	150
#	15205
#	30828
#	47773
#	64835
#	79750
#	90355
#	104058
#	116943
#	133058
#
# Disc length: 1994 seconds
#
# Revision: 12
# Processed by: cddbd v1.5.2PL0 Copyright (c) Steve Scherf et al.
# Submitted via: EasyCDDAExtractor 16.0.6.1
#
DISCID=7807c80a
DTITLE=Emmylou Harris - C-028 Profile II
DYEAR=1984
DGENRE=Country
TTITLE0=Blue Kentucky Girl
TTITLE1=Wayfaring Stranger
TTITLE2=Beneath Still Waters
TTITLE3=Born To Run
TTITLE4=Someone Like You
TTITLE5=Mister Sandman
TTITLE6=Pledging My Love
TTITLE7=I'm Movin' On
TTITLE8=(Lost His Love) On Our Last Date
TTITLE9=Save The Last Dance For Me
EXTD=Warner Bros-1984\\r\nRecording-1979,1980,1981,1982,1983,1984 YEAR: 1984
EXTT0=
EXTT1=
EXTT2=
EXTT3=
EXTT4=
EXTT5=
EXTT6=
EXTT7=
EXTT8=
EXTT9=
PLAYORDER=
